HIERARCHY
ROOT Hips
{
	OFFSET 0.00000 0.00000 0.00000
	CHANNELS 6 Xposition Yposition Zposition Zrotation Yrotation Xrotation 
	JOINT LHipJoint
	{
		OFFSET 0 0 0
		CHANNELS 3 Zrotation Yrotation Xrotation
		JOINT LeftUpLeg
		{
			OFFSET 1.59715 -1.91394 0.36268
			CHANNELS 3 Zrotation Yrotation Xrotation
			JOINT LeftLeg
			{
				OFFSET 2.53886 -6.97546 0.00000
				CHANNELS 3 Zrotation Yrotation Xrotation
				JOINT LeftFoot
				{
					OFFSET 2.77084 -7.61284 0.00000
					CHANNELS 3 Zrotation Yrotation Xrotation
					JOINT LeftToeBase
					{
						OFFSET 0.19855 -0.54550 2.06057
						CHANNELS 3 Zrotation Yrotation Xrotation
						End Site
						{
							OFFSET 0.00000 -0.00000 1.07182
						}
					}
				}
			}
		}
	}
	JOINT RHipJoint
	{
		OFFSET 0 0 0
		CHANNELS 3 Zrotation Yrotation Xrotation
		JOINT RightUpLeg
		{
			OFFSET -1.71086 -1.91394 0.36268
			CHANNELS 3 Zrotation Yrotation Xrotation
			JOINT RightLeg
			{
				OFFSET -2.59448 -7.12828 0.00000
				CHANNELS 3 Zrotation Yrotation Xrotation
				JOINT RightFoot
				{
					OFFSET -2.80237 -7.69945 0.00000
					CHANNELS 3 Zrotation Yrotation Xrotation
					JOINT RightToeBase
					{
						OFFSET -0.18280 -0.50224 2.06614
						CHANNELS 3 Zrotation Yrotation Xrotation
						End Site
						{
							OFFSET -0.00000 -0.00000 1.07055
						}
					}
				}
			}
		}
	}
	JOINT LowerBack
	{
		OFFSET 0 0 0
		CHANNELS 3 Zrotation Yrotation Xrotation
		JOINT Spine
		{
			OFFSET 0.04838 1.91536 -0.09733
			CHANNELS 3 Zrotation Yrotation Xrotation
			JOINT Spine1
			{
				OFFSET 0.04097 1.92183 -0.02751
				CHANNELS 3 Zrotation Yrotation Xrotation
				JOINT Neck
				{
					OFFSET 0 0 0
					CHANNELS 3 Zrotation Yrotation Xrotation
					JOINT Neck1
					{
						OFFSET 0.18766 3.12816 0.13727
						CHANNELS 3 Zrotation Yrotation Xrotation
						JOINT Head
						{
							OFFSET -0.11178 3.16074 0.02732
							CHANNELS 3 Zrotation Yrotation Xrotation
							End Site
							{
								OFFSET 0.47685 1.04189 0.57898
							}
						}
					}
				}
				JOINT LeftShoulder
				{
					OFFSET 0 0 0
					CHANNELS 3 Zrotation Yrotation Xrotation
					JOINT LeftArm
					{
						OFFSET 3.49325 0.99827 -0.10681
						CHANNELS 3 Zrotation Yrotation Xrotation
						JOINT LeftForeArm
						{
							OFFSET 5.12842 -0.00000 0.00000
							CHANNELS 3 Zrotation Yrotation Xrotation
							JOINT LeftHand
							{
								OFFSET 3.47396 -0.00000 0.00000
								CHANNELS 3 Zrotation Yrotation Xrotation
								JOINT LeftFingerBase
								{
									OFFSET 0 0 0
									CHANNELS 3 Zrotation Yrotation Xrotation
									JOINT LeftHandIndex1
									{
										OFFSET 0.72861 -0.00000 0.00000
										CHANNELS 3 Zrotation Yrotation Xrotation
										End Site
										{
											OFFSET 0.58742 -0.00000 0.00000
										}
									}
								}
								JOINT LThumb
								{
									OFFSET 0 0 0
									CHANNELS 3 Zrotation Yrotation Xrotation
									End Site
									{
										OFFSET 0.59639 -0.00000 0.59639
									}
								}
							}
						}
					}
				}
				JOINT RightShoulder
				{
					OFFSET 0 0 0
					CHANNELS 3 Zrotation Yrotation Xrotation
					JOINT RightArm
					{
						OFFSET -3.23261 1.50670 -0.18692
						CHANNELS 3 Zrotation Yrotation Xrotation
						JOINT RightForeArm
						{
							OFFSET -5.48477 -0.00000 -0.00000
							CHANNELS 3 Zrotation Yrotation Xrotation
							JOINT RightHand
							{
								OFFSET -3.47856 -0.00000 0.00000
								CHANNELS 3 Zrotation Yrotation Xrotation
								JOINT RightFingerBase
								{
									OFFSET 0 0 0
									CHANNELS 3 Zrotation Yrotation Xrotation
									JOINT RightHandIndex1
									{
										OFFSET -0.70997 -0.00000 0.00000
										CHANNELS 3 Zrotation Yrotation Xrotation
										End Site
										{
											OFFSET -0.57240 -0.00000 0.00000
										}
									}
								}
								JOINT RThumb
								{
									OFFSET 0 0 0
									CHANNELS 3 Zrotation Yrotation Xrotation
									End Site
									{
										OFFSET -0.58114 -0.00000 0.58114
									}
								}
							}
						}
					}
				}
			}
		}
	}
}
MOTION
Frames: 15
Frame Time: .0083333
-0.8283 17.9644 -13.2571 0 0 0 0 0 0 -21 0 0 0 0 0 0 0 0 0 0 0 0 0 0 21 0 0 0 0 0 0 0 0 0 0 0 0 0 0 0 0 0 0 0 0 0 0 -16 0 0 21 0 0 11 0 0 0 -8 0 0 0 0 0 0 0 0 0 0 0 0 0 0 0 0 0 0 0 0 8 0 0 0 0 0 0 0 0 0 0 0 0 0 0 0 0 0
-0.8283 17.9644 -13.2571 -1.5645 -2.5383 6.3684 0.0000 0.0000 0.0000 -19.0357 -14.7721 -13.9244 2.9015 10.5339 30.7235 1.0395 2.5539 -20.3389 0.1544 2.5323 6.9792 0.0000 0.0000 0.0000 27.6581 13.0390 -15.8444 -3.5165 -11.4877 33.9428 -0.9555 -9.0941 -23.8775 -3.0189 -10.7255 31.3597 2.6953 -0.2645 2.3512 2.4476 -0.2132 -0.9131 1.0116 -0.1275 -2.2575 -4.3492 -1.8844 -15.5283 -3.0212 -0.7826 21.4818 -0.4152 -1.0629 9.3661 0.0000 0.0000 0.0000 -94.8156 1.6515 11.4385 14.9507 -24.0774 -3.2058 -0.0000 -0.0000 12.7717 11.8232 32.8634 6.4806 -7.1250 0.0000 -0.0000 -24.4198 61.7409 -10.2841 0.0000 0.0000 0.0000 87.5368 3.3599 13.1892 -12.2527 20.1825 -2.1887 0.0000 0.0000 0.1380 -25.3258 16.8312 -7.8027 7.1250 -0.0000 -0.0000 1.6690 -11.4815 1.3040
-0.8340 17.9628 -13.2604 -1.6861 -2.5271 6.3814 0.0000 0.0000 0.0000 -18.8572 -14.7223 -14.0495 2.9295 10.5800 30.8760 1.0564 2.4652 -20.4502 0.1624 2.5964 7.1571 0.0000 0.0000 0.0000 27.8148 13.1103 -15.8051 -3.5053 -11.4712 33.8860 -0.9594 -9.0304 -23.8589 -3.1286 -10.9004 31.9445 2.8286 -0.2840 2.4031 2.5231 -0.2349 -0.8079 1.0153 -0.1386 -2.1789 -4.3538 -1.8918 -15.7443 -3.1266 -0.7502 21.5435 -0.4498 -1.0630 9.4281 -0.0000 0.0000 0.0000 -94.8653 1.4229 11.4614 14.9069 -24.0163 -3.1880 -0.0000 -0.0000 13.0253 11.4976 32.8990 6.3047 -7.1250 0.0000 -0.0000 -24.7968 61.6920 -10.4250 -0.0000 0.0000 0.0000 87.4571 3.5306 13.4203 -12.3476 20.3239 -2.2216 0.0000 -0.0000 -0.1472 -25.1478 16.6816 -7.6748 7.1250 -0.0000 -0.0000 1.7739 -11.6698 1.3791
-0.8388 17.9615 -13.2576 -1.7259 -2.5922 6.4309 0.0000 0.0000 0.0000 -18.7902 -14.7034 -14.1041 2.9315 10.5833 30.8872 1.0624 2.4852 -20.5138 0.1630 2.6013 7.1707 0.0000 0.0000 0.0000 27.8598 13.1397 -15.8153 -3.4998 -11.4632 33.8584 -0.9747 -8.8964 -23.8784 -3.1725 -10.9691 32.1759 2.9108 -0.2625 2.3968 2.5350 -0.2060 -0.7432 0.9799 -0.1244 -2.1091 -4.1261 -1.8152 -15.8556 -3.3101 -0.6489 21.6261 -0.5401 -1.0207 9.4749 -0.0000 -0.0000 0.0000 -94.8591 1.3342 11.5474 14.8980 -24.0039 -3.1843 -0.0000 -0.0000 12.9931 11.4205 32.7900 6.2433 -7.1250 0.0000 -0.0000 -24.7765 61.5755 -10.3473 -0.0000 -0.0000 0.0000 87.4809 3.6419 13.3470 -12.3723 20.3606 -2.2301 0.0000 -0.0000 -0.1461 -25.1520 16.8346 -7.7438 7.1250 -0.0000 -0.0000 1.7843 -11.5034 1.3933
-0.8451 17.9628 -13.2515 -1.6840 -2.6356 6.5357 0.0000 0.0000 0.0000 -18.8021 -14.7547 -14.2350 2.9482 10.6107 30.9779 1.0671 2.5460 -20.5854 0.1960 2.8510 7.8643 0.0000 0.0000 0.0000 27.8034 13.0788 -15.9067 -3.4871 -11.4446 33.7946 -0.9791 -8.7324 -23.7846 -3.2214 -11.0450 32.4320 2.9364 -0.2225 2.3515 2.4849 -0.1544 -0.7626 0.9117 -0.0993 -2.1035 -3.9433 -1.7541 -15.8003 -3.3672 -0.5992 21.6837 -0.5837 -0.9897 9.4826 -0.0000 0.0000 0.0000 -94.7699 1.4090 11.8223 14.9046 -24.0131 -3.1870 -0.0000 -0.0000 12.6656 11.5021 32.5953 6.2559 -7.1250 0.0000 -0.0000 -24.5113 61.4213 -10.1391 -0.0000 0.0000 0.0000 87.5716 3.6930 13.1859 -12.3372 20.3084 -2.2179 0.0000 -0.0000 -0.0820 -25.1560 16.8256 -7.7412 7.1250 -0.0000 -0.0000 1.7809 -11.5125 1.3903
-0.8502 17.9667 -13.2366 -1.4476 -2.5773 6.5065 0.0000 0.0000 0.0000 -19.0912 -14.7854 -14.1649 2.9638 10.6362 31.0627 1.0732 2.6041 -20.6689 0.3217 3.6459 10.0825 0.0000 0.0000 0.0000 27.5559 12.7431 -15.8911 -3.4719 -11.4224 33.7180 -0.9945 -8.4858 -23.7202 -3.2783 -11.1325 32.7282 2.7581 -0.2337 2.2886 2.4136 -0.1803 -0.7317 0.9387 -0.1097 -2.0359 -4.0973 -1.7618 -15.7049 -3.2281 -0.6109 21.6239 -0.5099 -0.9899 9.4453 0.0000 -0.0000 0.0000 -94.7629 1.4329 11.7855 14.8415 -23.9249 -3.1614 -0.0000 -0.0000 12.5897 11.5255 32.0534 6.1765 -7.1250 0.0000 -0.0000 -24.0005 60.9397 -9.6383 0.0000 -0.0000 0.0000 87.5681 3.7093 13.3847 -12.3429 20.3169 -2.2199 0.0000 -0.0000 -0.1315 -25.2928 16.3579 -7.5807 7.1250 -0.0000 -0.0000 1.6499 -11.9999 1.2713
-0.8589 17.9616 -13.2434 -1.8684 -2.6020 6.5544 0.0000 0.0000 0.0000 -18.5617 -14.7834 -14.3428 2.9924 10.6828 31.2175 1.0706 2.7037 -20.6935 0.2799 3.4028 9.4023 0.0000 0.0000 0.0000 28.0540 12.8620 -15.8570 -3.4519 -11.3929 33.6169 -0.9863 -8.4908 -23.6553 -3.3662 -11.2655 33.1804 3.1147 -0.2286 2.5031 2.5807 -0.1468 -0.7712 0.9112 -0.0982 -2.1980 -4.2236 -1.7411 -15.6046 -3.1905 -0.5671 21.5490 -0.4687 -0.9732 9.4017 -0.0000 0.0000 0.0000 -94.8566 1.4030 11.3958 14.7325 -23.7721 -3.1173 -0.0000 -0.0000 12.8217 11.2657 31.3028 5.9088 -7.1250 0.0000 -0.0000 -23.6264 60.1996 -9.0594 -0.0000 0.0000 0.0000 87.5004 3.6272 13.8056 -12.4605 20.4917 -2.2609 0.0000 -0.0000 -0.2204 -25.6435 15.7362 -7.4179 7.1250 -0.0000 -0.0000 1.3633 -12.6266 1.0326
-0.8653 17.9581 -13.2396 -2.1135 -2.5953 6.5365 0.0000 0.0000 0.0000 -18.2706 -14.7157 -14.4031 3.0238 10.7335 31.3863 1.0847 2.6984 -20.8184 0.2614 3.2891 9.0846 0.0000 0.0000 0.0000 28.3619 12.8723 -15.7407 -3.4349 -11.3678 33.5306 -0.9864 -8.4857 -23.6520 -3.3917 -11.3036 33.3108 3.3965 -0.2362 2.6303 2.6661 -0.1391 -0.7639 0.8418 -0.0982 -2.2629 -4.2789 -1.7372 -15.5649 -3.1677 -0.5544 21.5739 -0.4499 -0.9695 9.4036 0.0000 -0.0000 0.0000 -94.9032 1.4634 11.3193 14.7493 -23.7957 -3.1241 -0.0000 -0.0000 12.8557 10.8756 31.1852 5.6814 -7.1250 0.0000 -0.0000 -23.9328 60.0021 -9.0714 0.0000 -0.0000 0.0000 87.4794 3.5066 14.0463 -12.5882 20.6809 -2.3058 0.0000 -0.0000 -0.3337 -25.8592 15.6276 -7.4390 7.1250 -0.0000 -0.0000 1.2098 -12.7147 0.9140
-0.8719 17.9553 -13.2362 -2.1927 -2.5401 6.6320 0.0000 0.0000 0.0000 -18.1167 -14.6932 -14.6400 3.0674 10.8033 31.6194 1.1043 2.5355 -20.9142 0.2647 3.3100 9.1430 0.0000 0.0000 0.0000 28.4621 12.8759 -15.7879 -3.4186 -11.3437 33.4481 -0.9817 -8.5396 -23.6547 -3.3554 -11.2492 33.1251 3.5361 -0.2376 2.6188 2.6922 -0.1373 -0.7372 0.7904 -0.0985 -2.2294 -4.4066 -1.7765 -15.7142 -3.0660 -0.5875 21.6540 -0.4001 -0.9869 9.4610 -0.0000 -0.0000 0.0000 -94.9238 1.4355 11.4729 14.8167 -23.8902 -3.1514 -0.0000 -0.0000 12.7784 10.7771 31.3789 5.6602 -7.1250 0.0000 -0.0000 -24.1979 60.1538 -9.2674 -0.0000 -0.0000 0.0000 87.4436 3.5523 14.2024 -12.6427 20.7615 -2.3251 0.0000 -0.0000 -0.4979 -25.9384 15.7508 -7.5216 7.1250 -0.0000 -0.0000 1.1674 -12.5691 0.8856
-0.8790 17.9518 -13.2338 -2.2718 -2.4990 6.7575 0.0000 0.0000 0.0000 -17.9486 -14.6836 -14.8946 3.1009 10.8566 31.7978 1.1162 2.3403 -20.9274 0.2904 3.4657 9.5780 0.0000 0.0000 0.0000 28.5566 12.8857 -15.8958 -3.4093 -11.3298 33.4005 -0.9703 -8.5968 -23.6038 -3.2925 -11.1541 32.8013 3.6497 -0.2312 2.5695 2.7232 -0.1289 -0.6979 0.7579 -0.0946 -2.1614 -4.4584 -1.7814 -15.9031 -3.0319 -0.5737 21.7235 -0.3805 -0.9839 9.5212 0.0000 0.0000 0.0000 -94.9369 1.3177 11.5887 14.8203 -23.8951 -3.1528 -0.0000 -0.0000 12.7553 11.0486 31.3497 5.8006 -7.1250 0.0000 -0.0000 -23.8915 60.1911 -9.1633 0.0000 0.0000 0.0000 87.4185 3.6938 14.2307 -12.6598 20.7867 -2.3311 0.0000 -0.0000 -0.5283 -26.0107 15.5352 -7.4459 7.1250 -0.0000 -0.0000 1.1005 -12.7944 0.8296
-0.8854 17.9491 -13.2291 -2.3396 -2.5051 6.7995 0.0000 0.0000 0.0000 -17.8279 -14.6105 -15.0519 3.1295 10.9018 31.9493 1.1309 2.1837 -20.9859 0.3232 3.6542 10.1059 0.0000 0.0000 0.0000 28.6465 12.8516 -15.9189 -3.4035 -11.3212 33.3709 -0.9623 -8.5950 -23.5351 -3.2395 -11.0730 32.5264 3.7742 -0.2286 2.6062 2.7284 -0.1190 -0.6937 0.6936 -0.0915 -2.1780 -4.3766 -1.7285 -15.8580 -3.0683 -0.5167 21.6950 -0.3986 -0.9537 9.5015 0.0000 0.0000 0.0000 -94.8991 1.3331 11.7214 14.8243 -23.9008 -3.1544 -0.0000 -0.0000 12.6604 11.3225 31.3366 5.9449 -7.1250 0.0000 -0.0000 -23.5958 60.2436 -9.0718 0.0000 0.0000 0.0000 87.4576 3.7611 14.1021 -12.6303 20.7431 -2.3207 0.0000 -0.0000 -0.4161 -26.0461 15.3513 -7.3722 7.1250 -0.0000 -0.0000 1.0609 -12.9907 0.7954
-0.8918 17.9482 -13.2241 -2.4035 -2.5304 6.7721 0.0000 0.0000 0.0000 -17.7417 -14.5888 -15.0886 3.1554 10.9424 32.0860 1.1406 2.1779 -21.0681 0.3140 3.6024 9.9606 0.0000 0.0000 0.0000 28.7467 12.8115 -15.8565 -3.3977 -11.3126 33.3414 -0.9628 -8.5664 -23.5168 -3.2412 -11.0756 32.5353 3.8754 -0.2336 2.7371 2.7376 -0.1141 -0.6949 0.6471 -0.0913 -2.2532 -4.3131 -1.6838 -15.7112 -3.1230 -0.4706 21.6089 -0.4199 -0.9300 9.4430 -0.0000 0.0000 0.0000 -94.8825 1.4183 11.7542 14.8658 -23.9588 -3.1713 -0.0000 -0.0000 12.6138 11.3706 31.4005 5.9815 -7.1250 0.0000 -0.0000 -23.5994 60.3128 -9.1125 -0.0000 0.0000 0.0000 87.4590 3.7886 14.1195 -12.5881 20.6808 -2.3058 0.0000 -0.0000 -0.3755 -26.0077 15.3607 -7.3642 7.1250 -0.0000 -0.0000 1.0875 -12.9857 0.8155
-0.8990 17.9469 -13.2177 -2.4583 -2.5340 6.7550 0.0000 0.0000 0.0000 -17.6613 -14.6365 -15.0901 3.1785 10.9785 32.2074 1.1434 2.2228 -21.1135 0.2901 3.4635 9.5719 0.0000 0.0000 0.0000 28.8436 12.8036 -15.7863 -3.3915 -11.3033 33.3097 -0.9666 -8.5343 -23.5235 -3.2741 -11.1261 32.7062 3.9144 -0.2293 2.8494 2.7668 -0.1000 -0.6814 0.6551 -0.0851 -2.3024 -4.2925 -1.6666 -15.6753 -3.1530 -0.4473 21.5984 -0.4303 -0.9203 9.4324 0.0000 -0.0000 0.0000 -94.8937 1.4900 11.7943 14.9373 -24.0587 -3.2003 -0.0000 -0.0000 12.6350 11.2198 31.4124 5.9026 -7.1250 0.0000 -0.0000 -23.7665 60.2879 -9.1672 0.0000 -0.0000 0.0000 87.4232 3.7641 14.2820 -12.6316 20.7450 -2.3212 0.0000 -0.0000 -0.4508 -25.9549 15.3070 -7.3224 7.1250 -0.0000 -0.0000 1.1184 -13.0518 0.8371
-0.9066 17.9439 -13.2088 -2.4686 -2.5126 6.7789 0.0000 0.0000 0.0000 -17.6146 -14.6110 -15.1556 3.1994 11.0111 32.3172 1.1512 2.1863 -21.1653 0.2885 3.4544 9.5466 0.0000 0.0000 0.0000 28.8872 12.7940 -15.7699 -3.3860 -11.2952 33.2821 -0.9793 -8.4602 -23.5728 -3.3265 -11.2057 32.9767 3.8963 -0.2128 2.8420 2.7863 -0.0799 -0.6574 0.6841 -0.0741 -2.2730 -4.2466 -1.6493 -15.6203 -3.1563 -0.4382 21.5901 -0.4372 -0.9119 9.4187 -0.0000 -0.0000 0.0000 -94.8895 1.5204 11.9156 14.9975 -24.1427 -3.2249 -0.0000 -0.0000 12.6015 11.0551 31.3103 5.7975 -7.1250 0.0000 -0.0000 -23.8514 60.1570 -9.1272 -0.0000 -0.0000 0.0000 87.4350 3.7002 14.3357 -12.7278 20.8871 -2.3554 0.0000 -0.0000 -0.4995 -25.9474 15.3386 -7.3345 7.1250 -0.0000 -0.0000 1.1262 -13.0183 0.8437
-0.9141 17.9408 -13.2011 -2.4703 -2.4693 6.7937 0.0000 0.0000 0.0000 -17.5812 -14.5817 -15.2093 3.2184 11.0405 32.4167 1.1630 2.1436 -21.2485 0.2720 3.3549 9.2685 0.0000 0.0000 0.0000 28.9249 12.7868 -15.7616 -3.3844 -11.2927 33.2737 -0.9909 -8.4393 -23.6537 -3.3627 -11.2602 33.1625 3.8767 -0.2169 2.8236 2.8096 -0.0887 -0.6143 0.7191 -0.0771 -2.2183 -4.2459 -1.6284 -15.5156 -3.1284 -0.4263 21.4874 -0.4242 -0.8998 9.3630 0.0000 -0.0000 0.0000 -94.8930 1.5038 11.9626 15.0451 -24.2089 -3.2444 -0.0000 -0.0000 12.5339 11.0615 31.1681 5.7774 -7.1250 0.0000 -0.0000 -23.7258 60.0299 -9.0034 0.0000 -0.0000 0.0000 87.4505 3.6855 14.3580 -12.7975 20.9898 -2.3803 0.0000 -0.0000 -0.5192 -25.9550 15.4334 -7.3808 7.1250 -0.0000 -0.0000 1.1291 -12.9134 0.8484
